<svg xmlns="http://www.w3.org/2000/svg" width="800" height="500" viewBox="0 0 800 500">
  <defs>
    <linearGradient id="bg" x1="0%" y1="0%" x2="100%" y2="100%">
      <stop offset="0%" style="stop-color:#0a0a1a"/>
      <stop offset="50%" style="stop-color:#0d1f3c"/>
      <stop offset="100%" style="stop-color:#1a0a2e"/>
    </linearGradient>
    <linearGradient id="gold" x1="0%" y1="0%" x2="0%" y2="100%">
      <stop offset="0%" style="stop-color:#ffd700"/>
      <stop offset="100%" style="stop-color:#b8860b"/>
    </linearGradient>
    <linearGradient id="screen" x1="0%" y1="0%" x2="0%" y2="100%">
      <stop offset="0%" style="stop-color:#1a2a40"/>
      <stop offset="100%" style="stop-color:#0d1520"/>
    </linearGradient>
  </defs>
  <!-- Background -->
  <rect width="800" height="500" fill="url(#bg)"/>
  <!-- Grid pattern -->
  <g opacity="0.05" stroke="white" stroke-width="0.5">
    <line x1="0" y1="50" x2="800" y2="50"/><line x1="0" y1="100" x2="800" y2="100"/>
    <line x1="0" y1="150" x2="800" y2="150"/><line x1="0" y1="200" x2="800" y2="200"/>
    <line x1="0" y1="250" x2="800" y2="250"/><line x1="0" y1="300" x2="800" y2="300"/>
    <line x1="0" y1="350" x2="800" y2="350"/><line x1="0" y1="400" x2="800" y2="400"/>
    <line x1="100" y1="0" x2="100" y2="500"/><line x1="200" y1="0" x2="200" y2="500"/>
    <line x1="300" y1="0" x2="300" y2="500"/><line x1="400" y1="0" x2="400" y2="500"/>
    <line x1="500" y1="0" x2="500" y2="500"/><line x1="600" y1="0" x2="600" y2="500"/>
    <line x1="700" y1="0" x2="700" y2="500"/>
  </g>
  <!-- Glow effects -->
  <circle cx="400" cy="250" r="200" fill="#10b981" opacity="0.05"/>
  <circle cx="300" cy="200" r="100" fill="#6366f1" opacity="0.08"/>
  <circle cx="550" cy="300" r="120" fill="#f59e0b" opacity="0.06"/>
  <!-- Code editor mockup -->
  <rect x="100" y="60" width="600" height="340" rx="12" fill="#1e293b" stroke="#334155" stroke-width="1.5"/>
  <!-- Title bar -->
  <rect x="100" y="60" width="600" height="35" rx="12" fill="#0f172a"/>
  <rect x="100" y="83" width="600" height="12" fill="#0f172a"/>
  <circle cx="125" cy="78" r="6" fill="#ef4444"/>
  <circle cx="145" cy="78" r="6" fill="#f59e0b"/>
  <circle cx="165" cy="78" r="6" fill="#22c55e"/>
  <text x="400" y="82" font-family="monospace" font-size="11" fill="#64748b" text-anchor="middle">EconomyPlugin.java</text>
  <!-- Line numbers -->
  <g font-family="monospace" font-size="12" fill="#475569">
    <text x="120" y="115">1</text><text x="120" y="132">2</text>
    <text x="120" y="149">3</text><text x="120" y="166">4</text>
    <text x="120" y="183">5</text><text x="120" y="200">6</text>
    <text x="120" y="217">7</text><text x="120" y="234">8</text>
    <text x="120" y="251">9</text><text x="113" y="268">10</text>
    <text x="113" y="285">11</text><text x="113" y="302">12</text>
    <text x="113" y="319">13</text><text x="113" y="336">14</text>
    <text x="113" y="353">15</text><text x="113" y="370">16</text>
  </g>
  <!-- Code -->
  <g font-family="monospace" font-size="12">
    <text x="145" y="115" fill="#c084fc">package</text><text x="210" y="115" fill="#e2e8f0"> com.economy.plugin;</text>
    <text x="145" y="149" fill="#c084fc">import</text><text x="198" y="149" fill="#e2e8f0"> org.bukkit.plugin.*;</text>
    <text x="145" y="183" fill="#c084fc">public class</text><text x="265" y="183" fill="#22d3ee"> EconomyPlugin</text><text x="403" y="183" fill="#c084fc"> extends</text><text x="468" y="183" fill="#22d3ee"> JavaPlugin</text><text x="553" y="183" fill="#e2e8f0"> {</text>
    <text x="165" y="217" fill="#c084fc">private</text><text x="225" y="217" fill="#22d3ee"> BankManager</text><text x="340" y="217" fill="#e2e8f0"> bank;</text>
    <text x="165" y="234" fill="#c084fc">private</text><text x="225" y="234" fill="#22d3ee"> ShopManager</text><text x="340" y="234" fill="#e2e8f0"> shop;</text>
    <text x="165" y="251" fill="#c084fc">private</text><text x="225" y="251" fill="#22d3ee"> AuctionHouse</text><text x="350" y="251" fill="#e2e8f0"> auction;</text>
    <text x="165" y="285" fill="#fbbf24">@Override</text>
    <text x="165" y="302" fill="#c084fc">public void</text><text x="270" y="302" fill="#86efac"> onEnable</text><text x="340" y="302" fill="#e2e8f0">() {</text>
    <text x="185" y="319" fill="#e2e8f0">  bank = </text><text x="262" y="319" fill="#c084fc">new</text><text x="292" y="319" fill="#22d3ee"> BankManager</text><text x="405" y="319" fill="#e2e8f0">();</text>
    <text x="185" y="336" fill="#e2e8f0">  shop = </text><text x="262" y="336" fill="#c084fc">new</text><text x="292" y="336" fill="#22d3ee"> ShopManager</text><text x="405" y="336" fill="#e2e8f0">();</text>
    <text x="185" y="353" fill="#e2e8f0">  auction = </text><text x="285" y="353" fill="#c084fc">new</text><text x="315" y="353" fill="#22d3ee"> AuctionHouse</text><text x="428" y="353" fill="#e2e8f0">();</text>
    <text x="165" y="370" fill="#e2e8f0">}</text>
  </g>
  <!-- Gold coins floating -->
  <circle cx="720" cy="120" r="18" fill="url(#gold)" opacity="0.9"/>
  <text x="720" y="126" font-family="Arial" font-size="16" font-weight="bold" fill="#8b6508" text-anchor="middle">$</text>
  <circle cx="740" cy="160" r="14" fill="url(#gold)" opacity="0.7"/>
  <text x="740" y="165" font-family="Arial" font-size="12" font-weight="bold" fill="#8b6508" text-anchor="middle">$</text>
  <circle cx="70" cy="180" r="16" fill="url(#gold)" opacity="0.8"/>
  <text x="70" y="186" font-family="Arial" font-size="14" font-weight="bold" fill="#8b6508" text-anchor="middle">$</text>
  <circle cx="50" cy="320" r="12" fill="url(#gold)" opacity="0.6"/>
  <text x="50" y="325" font-family="Arial" font-size="10" font-weight="bold" fill="#8b6508" text-anchor="middle">$</text>
  <!-- Label -->
  <rect x="0" y="400" width="800" height="100" fill="black" opacity="0.6"/>
  <text x="400" y="445" font-family="Arial, sans-serif" font-size="28" font-weight="bold" fill="white" text-anchor="middle">Custom Economy System</text>
  <text x="400" y="475" font-family="Arial, sans-serif" font-size="14" fill="#ccc" text-anchor="middle">Source code completo: Bank, Shops, Auctions y más</text>
</svg>
